HIERARCHY
ROOT Hips
{
	OFFSET 0.000000 0.000000 0.000000
	CHANNELS 6 Xposition Yposition Zposition Zrotation Yrotation Xrotation 
	JOINT LHipJoint
	{
		OFFSET 0.000000 0.000000 0.000000
		CHANNELS 3 Zrotation Yrotation Xrotation
		JOINT LeftUpLeg
		{
			OFFSET 1.363060 -1.794630 0.839290
			CHANNELS 3 Zrotation Yrotation Xrotation
			JOINT LeftLeg
			{
				OFFSET 2.448110 -6.726130 0.000000
				CHANNELS 3 Zrotation Yrotation Xrotation
				JOINT LeftFoot
				{
					OFFSET 2.562200 -7.039590 0.000000
					CHANNELS 3 Zrotation Yrotation Xrotation
					JOINT LeftToeBase
					{
						OFFSET 0.157640 -0.433110 2.322550
						CHANNELS 3 Zrotation Yrotation Xrotation
						End Site
						{
							OFFSET 0.000000 0.000000 0.000000
						}
					}
				}
			}
		}
	}
	JOINT RHipJoint
	{
		OFFSET 0.000000 0.000000 0.000000
		CHANNELS 3 Zrotation Yrotation Xrotation
		JOINT RightUpLeg
		{
			OFFSET -1.305520 -1.794630 0.839290
			CHANNELS 3 Zrotation Yrotation Xrotation
			JOINT RightLeg
			{
				OFFSET -2.542530 -6.985550 0.000000
				CHANNELS 3 Zrotation Yrotation Xrotation
				JOINT RightFoot
				{
					OFFSET -2.568260 -7.056230 0.000000
					CHANNELS 3 Zrotation Yrotation Xrotation
					JOINT RightToeBase
					{
						OFFSET -0.164730 -0.452590 2.363150
						CHANNELS 3 Zrotation Yrotation Xrotation
						End Site
						{
							OFFSET 0.000000 0.000000 0.000000
						}
					}
				}
			}
		}
	}
	JOINT LowerBack
	{
		OFFSET 0.000000 0.000000 0.000000
		CHANNELS 3 Zrotation Yrotation Xrotation
		JOINT Spine
		{
			OFFSET 0.028270 2.035590 -0.193380
			CHANNELS 3 Zrotation Yrotation Xrotation
			JOINT Spine1
			{
				OFFSET 0.056720 2.048850 -0.042750
				CHANNELS 3 Zrotation Yrotation Xrotation
				JOINT Neck
				{
					OFFSET 0.000000 0.000000 0.000000
					CHANNELS 3 Zrotation Yrotation Xrotation
					JOINT Neck1
					{
						OFFSET -0.054170 1.746240 0.172020
						CHANNELS 3 Zrotation Yrotation Xrotation
						JOINT Head
						{
							OFFSET 0.104070 1.761360 -0.123970
							CHANNELS 3 Zrotation Yrotation Xrotation
							End Site
							{
								OFFSET 0.000000 0.000000 0.000000
							}
						}
					}
				}
				JOINT LeftShoulder
				{
					OFFSET 0.000000 0.000000 0.000000
					CHANNELS 3 Zrotation Yrotation Xrotation
					JOINT LeftArm
					{
						OFFSET 3.362410 1.200890 -0.311210
						CHANNELS 3 Zrotation Yrotation Xrotation
						JOINT LeftForeArm
						{
							OFFSET 4.983000 -0.000000 -0.000000
							CHANNELS 3 Zrotation Yrotation Xrotation
							JOINT LeftHand
							{
								OFFSET 3.483560 -0.000000 -0.000000
								CHANNELS 3 Zrotation Yrotation Xrotation
								JOINT LeftFingerBase
								{
									OFFSET 0.000000 0.000000 0.000000
									CHANNELS 3 Zrotation Yrotation Xrotation
									JOINT LeftHandIndex1
									{
										OFFSET 0.715260 -0.000000 -0.000000
										CHANNELS 3 Zrotation Yrotation Xrotation
										End Site
										{
											OFFSET 0.000000 0.000000 0.000000
										}
									}
								}
								JOINT LThumb
								{
									OFFSET 0.000000 0.000000 0.000000
									CHANNELS 3 Zrotation Yrotation Xrotation
									End Site
									{
										OFFSET 0.000000 0.000000 0.000000
									}
								}
							}
						}
					}
				}
				JOINT RightShoulder
				{
					OFFSET 0.000000 0.000000 0.000000
					CHANNELS 3 Zrotation Yrotation Xrotation
					JOINT RightArm
					{
						OFFSET -3.136600 1.374050 -0.404650
						CHANNELS 3 Zrotation Yrotation Xrotation
						JOINT RightForeArm
						{
							OFFSET -5.241900 -0.000000 -0.000000
							CHANNELS 3 Zrotation Yrotation Xrotation
							JOINT RightHand
							{
								OFFSET -3.444170 -0.000000 -0.000000
								CHANNELS 3 Zrotation Yrotation Xrotation
								JOINT RightFingerBase
								{
									OFFSET 0.000000 0.000000 0.000000
									CHANNELS 3 Zrotation Yrotation Xrotation
									JOINT RightHandIndex1
									{
										OFFSET -0.622530 -0.000000 -0.000000
										CHANNELS 3 Zrotation Yrotation Xrotation
										End Site
										{
											OFFSET 0.000000 0.000000 0.000000
										}
									}
								}
								JOINT RThumb
								{
									OFFSET 0.000000 0.000000 0.000000
									CHANNELS 3 Zrotation Yrotation Xrotation
									End Site
									{
										OFFSET 0.000000 0.000000 0.000000
									}
								}
							}
						}
					}
				}
			}
		}
	}
}
MOTION
Frames: 7
Frame Time: 0.008333
2.838024 16.867920 0.867333 67.901316 -88.858721 -58.740205 -10.189082 2.350321 1.475918 -6.861269 14.553698 -23.392946 -2.154001 0.373163 26.285527 1.781105 9.923227 -10.856375 -0.689599 0.000000 -49.623299 11.056130 -1.480792 1.825442 -1.948280 -10.144017 -17.841191 1.361093 -0.737681 23.674960 -1.305701 -5.367883 -6.864388 -0.320200 0.000000 -74.096900 0.686750 -4.859638 -5.646705 0.192725 -5.005167 -3.289664 -3.578145 -5.070248 2.606112 13.584881 -25.378951 -11.521258 -1.050442 -0.021039 -0.917639 0.000000 0.000000 0.000000 21.927043 8.699964 -1.999722 -37.009981 -5.006252 -14.202954 179.227805 -56.800514 179.981897 0.764362 -2.537368 -0.018251 0.154264 0.673485 0.000000 0.000000 0.000000 0.000000 0.000000 0.000000 0.000000 7.714337 -21.928226 -1.182351 30.006890 12.545858 -12.173321 179.147404 60.020510 179.925068 -11.657988 6.568641 -0.751120 0.343016 -0.585813 -0.000000 0.000000 0.000000 0.000000 0.000000 0.000000 0.000000 
2.810833 16.871622 0.873232 22.905422 -88.319711 -13.459562 -10.115118 2.960769 2.189482 -6.380624 12.667906 -24.258870 -2.266719 0.645790 26.334052 1.766768 9.550169 -10.890934 -0.637400 -0.000000 -49.607399 11.052700 -0.960270 1.437323 -1.226865 -11.436347 -17.214264 1.233333 -0.365175 23.108983 -1.433138 -6.313150 -6.758993 -0.388600 0.000000 -73.808100 0.970811 -4.722258 -6.083613 0.211753 -4.889177 -3.378674 -3.643464 -4.940710 2.666089 13.719187 -25.676053 -11.804214 -1.071583 -0.017380 -0.990454 0.000000 0.000000 0.000000 22.023091 8.850389 -2.064870 -37.291291 -5.533928 -13.501537 179.202675 -56.401594 179.981276 0.793725 -2.561772 -0.019280 0.155851 0.679377 0.000000 0.000000 0.000000 0.000000 0.000000 0.000000 0.000000 8.047145 -22.186560 -1.168645 30.051120 12.409866 -12.147207 179.108827 59.828281 179.924353 -11.982828 6.712450 -0.788199 0.357328 -0.587229 -0.000000 0.000000 0.000000 0.000000 0.000000 0.000000 0.000000 
2.787395 16.879314 0.869427 14.719674 -86.719044 -5.142074 -10.251507 3.059694 2.569940 -6.235042 11.432507 -24.473582 -2.264302 0.658044 25.956918 1.684022 8.966888 -10.670152 -0.560500 0.000000 -49.662500 10.879554 -0.935317 1.298984 -0.985638 -12.081423 -16.583209 1.176386 -0.238878 22.547107 -1.639759 -7.527221 -6.722450 -0.470000 0.000000 -73.465901 0.602271 -4.753459 -6.363792 0.124604 -4.895931 -3.417278 -3.720060 -4.942843 2.698063 13.931659 -25.965213 -12.089544 -1.092350 -0.013825 -1.066992 0.000000 0.000000 0.000000 22.213061 8.921579 -2.120004 -37.490800 -6.106767 -12.800281 179.192721 -55.987326 179.981269 0.767265 -2.585380 -0.018619 0.158596 0.683471 0.000000 0.000000 0.000000 0.000000 0.000000 0.000000 0.000000 8.458284 -22.487908 -1.149277 30.286137 12.257019 -12.069477 179.056529 59.596922 179.923119 -12.359975 6.882258 -0.832831 0.373879 -0.591447 -0.000000 0.000000 0.000000 0.000000 0.000000 0.000000 0.000000 
2.763165 16.890874 0.864879 10.556358 -84.816248 -0.851388 -10.308914 3.106520 2.957535 -6.045871 10.007367 -24.586847 -2.232087 0.628362 25.451516 1.601552 8.408977 -10.352007 -0.473801 0.000000 -49.682400 10.777705 -0.964715 1.162065 -0.712432 -12.828005 -15.846165 1.134395 -0.132741 21.786349 -1.862219 -8.830393 -6.594021 -0.579300 0.000000 -73.120200 0.275092 -4.835192 -6.635148 0.049456 -4.955875 -3.452608 -3.801888 -4.997462 2.728385 14.102203 -26.231978 -12.399284 -1.106417 -0.009184 -1.150764 0.000000 0.000000 0.000000 22.378078 8.993400 -2.159061 -37.720666 -6.710808 -12.077118 179.194980 -55.544574 179.981805 0.689784 -2.610469 -0.016460 0.162504 0.688386 0.000000 0.000000 0.000000 0.000000 0.000000 0.000000 0.000000 8.785990 -22.780253 -1.137350 30.663524 12.099577 -11.949472 179.005737 59.371345 179.921732 -12.741236 7.050141 -0.878863 0.390202 -0.596224 0.000000 0.000000 0.000000 0.000000 0.000000 0.000000 0.000000 
2.738181 16.906254 0.859704 8.190653 -82.741066 1.635642 -10.309169 3.141691 3.360454 -5.827828 8.418291 -24.599518 -2.185438 0.577749 24.795055 1.523331 7.902662 -9.934441 -0.379000 0.000000 -49.674800 10.726682 -1.009658 1.012551 -0.429711 -13.670148 -15.005495 1.097525 -0.027834 20.834643 -2.089139 -10.177927 -6.358200 -0.723900 -0.000000 -72.777600 -0.040797 -4.930965 -6.894434 -0.024397 -5.030158 -3.484242 -3.890851 -5.065511 2.759100 14.219175 -26.471567 -12.726729 -1.112886 -0.003428 -1.240231 0.000000 0.000000 0.000000 22.512669 9.085481 -2.183965 -37.974345 -7.355292 -11.337601 179.210144 -55.091201 179.982781 0.570208 -2.642578 -0.013102 0.167305 0.694286 0.000000 0.000000 0.000000 0.000000 0.000000 0.000000 0.000000 9.014049 -23.043375 -1.125820 31.196929 11.931731 -11.803665 178.955989 59.178974 179.920490 -13.068155 7.185536 -0.918403 0.404495 -0.600736 -0.000000 0.000000 0.000000 0.000000 0.000000 0.000000 0.000000 
2.712292 16.925324 0.854048 6.761344 -80.548270 3.180124 -10.269470 3.175131 3.780252 -5.590743 6.682519 -24.511021 -2.129391 0.512601 23.977388 1.450762 7.460527 -9.413753 -0.277201 0.000000 -49.650700 10.710431 -1.061716 0.847074 -0.154454 -14.610666 -14.070981 1.065097 0.080860 19.694254 -2.311951 -11.535305 -6.004386 -0.911400 0.000000 -72.440100 -0.369485 -5.023702 -7.141158 -0.103506 -5.099881 -3.512047 -3.986914 -5.128279 2.791054 14.274222 -26.679281 -13.064380 -1.111781 0.003343 -1.333591 0.000000 0.000000 0.000000 22.613808 9.206395 -2.198249 -38.248149 -8.058382 -10.584406 179.237656 -54.647995 179.984045 0.423285 -2.687292 -0.008746 0.172550 0.701385 0.000000 0.000000 0.000000 0.000000 0.000000 0.000000 0.000000 9.134156 -23.266097 -1.109705 31.882819 11.728975 -11.662757 178.907950 59.040599 179.919662 -13.288806 7.259507 -0.943459 0.415033 -0.604021 -0.000000 0.000000 0.000000 0.000000 0.000000 0.000000 0.000000 
2.685049 16.947845 0.848107 5.871008 -78.271816 4.186348 -10.199496 3.209576 4.217157 -5.340189 4.818104 -24.326536 -2.066792 0.435217 22.994737 1.384403 7.089298 -8.786705 -0.168399 -0.000000 -49.623300 10.720158 -1.121019 0.668007 0.103590 -15.649509 -13.058529 1.038919 0.194612 18.367221 -2.522895 -12.871603 -5.523908 -1.149000 0.000000 -72.113701 -0.723507 -5.101736 -7.379519 -0.191432 -5.152433 -3.537429 -4.089437 -5.173383 2.823082 14.262881 -26.849062 -13.402703 -1.104206 0.010860 -1.428378 0.000000 0.000000 0.000000 22.680978 9.352967 -2.205770 -38.540209 -8.825135 -9.820203 179.276065 -54.233385 179.985391 0.267518 -2.750557 -0.004087 0.177650 0.709833 -0.000000 0.000000 0.000000 0.000000 0.000000 0.000000 0.000000 9.144705 -23.436733 -1.084557 32.696525 11.455072 -11.566628 178.863387 58.965459 179.919407 -13.371473 7.249634 -0.948444 0.420659 -0.605226 -0.000000 0.000000 0.000000 0.000000 0.000000 0.000000 0.000000 
